# xmcd
#
# Track frame offsets: 
#        150
#        12285
#        22392
#        34552
#        48160
#        58922
#        69720
#        86727
#        94317
#        104415
#        116655
#        141322
#        152532
#        167202
#
# Disc length: 2330 seconds
#
# Revision: 1
# Processed by: cddbd v1.5.2PL0 Copyright (c) Steve Scherf et al.
# Submitted via: ExactAudioCopy v0.99pb5
#
DISCID=c409180e
DTITLE=Sylvia Telles - Pure Bossa Nova
DYEAR=2005
DGENRE=Bossa-Nova
TTITLE0=Dindi
TTITLE1=Samba do aviao
TTITLE2=Rio
TTITLE3=Voce e eu
TTITLE4=Ilusao a toa
TTITLE5=Vivo sonhando
TTITLE6=Sabado em  Copacabana
TTITLE7=Vagamente
TTITLE8=Chora tua tristeza
TTITLE9=Preciso aprender a ser só
TTITLE10=Minha namorado
TTITLE11=Samba de uma nota só
TTITLE12=Manha de Carnaval
TTITLE13=Se é tarde, me perdoa
EXTD=YEAR: 2005
EXTT0=
EXTT1=
EXTT2=
EXTT3=
EXTT4=
EXTT5=
EXTT6=
EXTT7=
EXTT8=
EXTT9=
EXTT10=
EXTT11=
EXTT12=
EXTT13=
PLAYORDER=
